<svg xmlns="http://www.w3.org/2000/svg" viewBox="0 0 800 420" font-family="Segoe UI, sans-serif">
<rect width="800" height="420" fill="#0d1117" rx="8"/>
<text x="64" y="30" fill="#e6edf3" font-size="17" font-weight="700">★ Star History — timoncool/prompt-warrior</text>
<text x="776" y="30" fill="#e6edf3" font-size="14" text-anchor="end">24 stars · updated 2026-10-06</text>
<line x1="64" y1="364.0" x2="776" y2="364.0" stroke="#30363d" stroke-width="1"/><text x="54" y="368.0" fill="#e6edf3" font-size="13" text-anchor="end">0</text><line x1="64" y1="285.0" x2="776" y2="285.0" stroke="#30363d" stroke-width="1"/><text x="54" y="289.0" fill="#e6edf3" font-size="13" text-anchor="end">6</text><line x1="64" y1="206.0" x2="776" y2="206.0" stroke="#30363d" stroke-width="1"/><text x="54" y="210.0" fill="#e6edf3" font-size="13" text-anchor="end">12</text><line x1="64" y1="127.0" x2="776" y2="127.0" stroke="#30363d" stroke-width="1"/><text x="54" y="131.0" fill="#e6edf3" font-size="13" text-anchor="end">18</text><line x1="64" y1="48.0" x2="776" y2="48.0" stroke="#30363d" stroke-width="1"/><text x="54" y="52.0" fill="#e6edf3" font-size="13" text-anchor="end">24</text>
<path d="M64.0,364.0 L64.0,350.8 L64.5,337.7 L66.8,324.5 L66.9,311.3 L67.1,298.2 L67.8,285.0 L67.8,271.8 L68.5,258.7 L74.2,245.5 L78.6,232.3 L80.9,219.2 L82.6,206.0 L84.2,192.8 L95.5,179.7 L113.5,166.5 L128.6,153.3 L186.8,140.2 L207.7,127.0 L248.0,113.8 L253.7,100.7 L354.1,87.5 L404.7,74.3 L615.5,61.2 L665.4,48.0 L776.0,48.0" fill="none" stroke="#4f8ff7" stroke-width="2.5" stroke-linejoin="round"/>
<circle cx="776.0" cy="48.0" r="4" fill="#4f8ff7"/>
<text x="64.0" y="388" fill="#e6edf3" font-size="13" text-anchor="middle">Jul 04, 2026</text><text x="301.3" y="388" fill="#e6edf3" font-size="13" text-anchor="middle">Aug 04, 2026</text><text x="538.7" y="388" fill="#e6edf3" font-size="13" text-anchor="middle">Sep 05, 2026</text><text x="776.0" y="388" fill="#e6edf3" font-size="13" text-anchor="middle">Oct 06, 2026</text>
</svg>