<svg xmlns="http://www.w3.org/2000/svg" viewBox="0 0 800 420" font-family="Segoe UI, sans-serif">
<rect width="800" height="420" fill="#ffffff" rx="8"/>
<text x="64" y="30" fill="#1f2328" font-size="17" font-weight="700">★ Star History — timoncool/prompt-warrior</text>
<text x="776" y="30" fill="#1f2328" font-size="14" text-anchor="end">14 stars · updated 2026-07-07</text>
<line x1="64" y1="364.0" x2="776" y2="364.0" stroke="#d1d9e0" stroke-width="1"/><text x="54" y="368.0" fill="#1f2328" font-size="13" text-anchor="end">0</text><line x1="64" y1="273.7" x2="776" y2="273.7" stroke="#d1d9e0" stroke-width="1"/><text x="54" y="277.7" fill="#1f2328" font-size="13" text-anchor="end">4</text><line x1="64" y1="206.0" x2="776" y2="206.0" stroke="#d1d9e0" stroke-width="1"/><text x="54" y="210.0" fill="#1f2328" font-size="13" text-anchor="end">7</text><line x1="64" y1="138.3" x2="776" y2="138.3" stroke="#d1d9e0" stroke-width="1"/><text x="54" y="142.3" fill="#1f2328" font-size="13" text-anchor="end">10</text><line x1="64" y1="48.0" x2="776" y2="48.0" stroke="#d1d9e0" stroke-width="1"/><text x="54" y="52.0" fill="#1f2328" font-size="13" text-anchor="end">14</text>
<path d="M64.0,364.0 L64.0,341.4 L80.0,318.9 L147.2,296.3 L148.1,273.7 L155.6,251.1 L175.0,228.6 L175.4,206.0 L196.9,183.4 L364.2,160.9 L490.5,138.3 L529.5,115.7 L560.6,93.1 L610.2,70.6 L655.3,48.0 L776.0,48.0" fill="none" stroke="#0969da" stroke-width="2.5" stroke-linejoin="round"/>
<circle cx="776.0" cy="48.0" r="4" fill="#0969da"/>
<text x="64.0" y="388" fill="#1f2328" font-size="13" text-anchor="middle">Jul 04, 2026</text><text x="301.3" y="388" fill="#1f2328" font-size="13" text-anchor="middle">Jul 05, 2026</text><text x="538.7" y="388" fill="#1f2328" font-size="13" text-anchor="middle">Jul 06, 2026</text><text x="776.0" y="388" fill="#1f2328" font-size="13" text-anchor="middle">Jul 07, 2026</text>
</svg>