<svg xmlns="http://www.w3.org/2000/svg" viewBox="0 0 800 420" font-family="Segoe UI, sans-serif">
<rect width="800" height="420" fill="#ffffff" rx="8"/>
<text x="64" y="30" fill="#1f2328" font-size="17" font-weight="700">★ Star History — timoncool/prompt-warrior</text>
<text x="776" y="30" fill="#1f2328" font-size="14" text-anchor="end">24 stars · updated 2026-10-03</text>
<line x1="64" y1="364.0" x2="776" y2="364.0" stroke="#d1d9e0" stroke-width="1"/><text x="54" y="368.0" fill="#1f2328" font-size="13" text-anchor="end">0</text><line x1="64" y1="285.0" x2="776" y2="285.0" stroke="#d1d9e0" stroke-width="1"/><text x="54" y="289.0" fill="#1f2328" font-size="13" text-anchor="end">6</text><line x1="64" y1="206.0" x2="776" y2="206.0" stroke="#d1d9e0" stroke-width="1"/><text x="54" y="210.0" fill="#1f2328" font-size="13" text-anchor="end">12</text><line x1="64" y1="127.0" x2="776" y2="127.0" stroke="#d1d9e0" stroke-width="1"/><text x="54" y="131.0" fill="#1f2328" font-size="13" text-anchor="end">18</text><line x1="64" y1="48.0" x2="776" y2="48.0" stroke="#d1d9e0" stroke-width="1"/><text x="54" y="52.0" fill="#1f2328" font-size="13" text-anchor="end">24</text>
<path d="M64.0,364.0 L64.0,350.8 L64.6,337.7 L66.9,324.5 L67.0,311.3 L67.2,298.2 L67.9,285.0 L67.9,271.8 L68.7,258.7 L74.6,245.5 L79.0,232.3 L81.5,219.2 L83.3,206.0 L84.9,192.8 L96.5,179.7 L115.2,166.5 L130.7,153.3 L190.9,140.2 L212.5,127.0 L254.2,113.8 L260.0,100.7 L363.8,87.5 L416.1,74.3 L634.0,61.2 L685.5,48.0 L776.0,48.0" fill="none" stroke="#0969da" stroke-width="2.5" stroke-linejoin="round"/>
<circle cx="776.0" cy="48.0" r="4" fill="#0969da"/>
<text x="64.0" y="388" fill="#1f2328" font-size="13" text-anchor="middle">Jul 04, 2026</text><text x="301.3" y="388" fill="#1f2328" font-size="13" text-anchor="middle">Aug 03, 2026</text><text x="538.7" y="388" fill="#1f2328" font-size="13" text-anchor="middle">Sep 03, 2026</text><text x="776.0" y="388" fill="#1f2328" font-size="13" text-anchor="middle">Oct 03, 2026</text>
</svg>